<mxfile host="app.diagrams.net" modified="2023-11-16T16:36:12.436Z" agent="Mozilla/5.0 (Windows NT 10.0; Win64; x64) AppleWebKit/537.36 (KHTML, like Gecko) Chrome/116.0.0.0 Safari/537.36 OPR/102.0.0.0" etag="Q656FII0JP1FbmiN8k2R" version="22.1.2" type="device">
  <diagram name="1 oldal" id="ovuHbMgfH-Z_sG2AECm2">
    <mxGraphModel dx="7907" dy="2303" grid="1" gridSize="10" guides="1" tooltips="1" connect="1" arrows="1" fold="1" page="1" pageScale="1" pageWidth="827" pageHeight="1169" math="0" shadow="0">
      <root>
        <mxCell id="0" />
        <mxCell id="1" parent="0" />
        <mxCell id="fGDcRd_FfJGOgD1_VsJv-1" value="Reptér" style="ellipse;shape=doubleEllipse;margin=3;whiteSpace=wrap;html=1;" parent="1" vertex="1">
          <mxGeometry x="430" y="100" width="160" height="60" as="geometry" />
        </mxCell>
        <mxCell id="fGDcRd_FfJGOgD1_VsJv-2" value="elhelyezkedés" style="ellipse;whiteSpace=wrap;html=1;" parent="1" vertex="1">
          <mxGeometry x="430" y="230" width="160" height="60" as="geometry" />
        </mxCell>
        <mxCell id="fGDcRd_FfJGOgD1_VsJv-3" value="&lt;u&gt;&lt;b&gt;Reptér_ID&lt;/b&gt;&lt;/u&gt;" style="rhombus;whiteSpace=wrap;html=1;" parent="1" vertex="1">
          <mxGeometry x="170" y="210" width="100" height="100" as="geometry" />
        </mxCell>
        <mxCell id="fGDcRd_FfJGOgD1_VsJv-5" value="ország" style="ellipse;whiteSpace=wrap;html=1;" parent="1" vertex="1">
          <mxGeometry x="253" y="360" width="160" height="60" as="geometry" />
        </mxCell>
        <mxCell id="fGDcRd_FfJGOgD1_VsJv-6" value="irányítószám" style="ellipse;whiteSpace=wrap;html=1;" parent="1" vertex="1">
          <mxGeometry x="610" y="360" width="160" height="60" as="geometry" />
        </mxCell>
        <mxCell id="fGDcRd_FfJGOgD1_VsJv-7" value="város" style="ellipse;whiteSpace=wrap;html=1;" parent="1" vertex="1">
          <mxGeometry x="430" y="360" width="160" height="60" as="geometry" />
        </mxCell>
        <mxCell id="fGDcRd_FfJGOgD1_VsJv-13" value="Dolgozó" style="ellipse;shape=doubleEllipse;margin=3;whiteSpace=wrap;html=1;" parent="1" vertex="1">
          <mxGeometry x="-630" y="100" width="160" height="60" as="geometry" />
        </mxCell>
        <mxCell id="fGDcRd_FfJGOgD1_VsJv-14" value="&lt;b&gt;&lt;u&gt;D_ID&lt;/u&gt;&lt;/b&gt;" style="rhombus;whiteSpace=wrap;html=1;" parent="1" vertex="1">
          <mxGeometry x="-1160" y="210" width="100" height="100" as="geometry" />
        </mxCell>
        <mxCell id="fGDcRd_FfJGOgD1_VsJv-15" value="név" style="ellipse;whiteSpace=wrap;html=1;" parent="1" vertex="1">
          <mxGeometry x="-1050" y="230" width="160" height="60" as="geometry" />
        </mxCell>
        <mxCell id="fGDcRd_FfJGOgD1_VsJv-16" value="lakcím" style="ellipse;whiteSpace=wrap;html=1;" parent="1" vertex="1">
          <mxGeometry x="-710" y="230" width="160" height="60" as="geometry" />
        </mxCell>
        <mxCell id="fGDcRd_FfJGOgD1_VsJv-17" value="munkakör" style="ellipse;whiteSpace=wrap;html=1;" parent="1" vertex="1">
          <mxGeometry x="-880" y="230" width="160" height="60" as="geometry" />
        </mxCell>
        <mxCell id="fGDcRd_FfJGOgD1_VsJv-18" value="pozíció" style="ellipse;whiteSpace=wrap;html=1;" parent="1" vertex="1">
          <mxGeometry x="-200" y="227.5" width="160" height="60" as="geometry" />
        </mxCell>
        <mxCell id="fGDcRd_FfJGOgD1_VsJv-19" value="fizetés" style="ellipse;whiteSpace=wrap;html=1;" parent="1" vertex="1">
          <mxGeometry x="-370" y="225" width="160" height="60" as="geometry" />
        </mxCell>
        <mxCell id="yyI9dhbXhJBttVIBJ3Yi-3" style="edgeStyle=orthogonalEdgeStyle;rounded=0;orthogonalLoop=1;jettySize=auto;html=1;exitX=0.5;exitY=1;exitDx=0;exitDy=0;entryX=0;entryY=1;entryDx=0;entryDy=0;fontFamily=Helvetica;fontSize=12;fontColor=default;dashed=1;" edge="1" parent="1" source="fGDcRd_FfJGOgD1_VsJv-28" target="fGDcRd_FfJGOgD1_VsJv-3">
          <mxGeometry relative="1" as="geometry">
            <Array as="points">
              <mxPoint x="20" y="640" />
              <mxPoint x="195" y="640" />
            </Array>
          </mxGeometry>
        </mxCell>
        <mxCell id="fGDcRd_FfJGOgD1_VsJv-28" value="Reptér_ID" style="rhombus;whiteSpace=wrap;html=1;" parent="1" vertex="1">
          <mxGeometry x="-30" y="207.5" width="100" height="100" as="geometry" />
        </mxCell>
        <mxCell id="fGDcRd_FfJGOgD1_VsJv-31" value="telefonszám" style="ellipse;shape=doubleEllipse;margin=3;whiteSpace=wrap;html=1;align=center;" parent="1" vertex="1">
          <mxGeometry x="-540" y="225" width="160" height="65" as="geometry" />
        </mxCell>
        <mxCell id="fGDcRd_FfJGOgD1_VsJv-32" value="Utasok" style="ellipse;shape=doubleEllipse;margin=3;whiteSpace=wrap;html=1;" parent="1" vertex="1">
          <mxGeometry x="-2530" y="100" width="160" height="60" as="geometry" />
        </mxCell>
        <mxCell id="fGDcRd_FfJGOgD1_VsJv-33" value="&lt;b&gt;&lt;u&gt;Útlevél&lt;/u&gt;&lt;/b&gt;" style="rhombus;whiteSpace=wrap;html=1;" parent="1" vertex="1">
          <mxGeometry x="-1870" y="210" width="100" height="100" as="geometry" />
        </mxCell>
        <mxCell id="fGDcRd_FfJGOgD1_VsJv-35" value="lakcím" style="ellipse;whiteSpace=wrap;html=1;" parent="1" vertex="1">
          <mxGeometry x="-2340" y="232.5" width="160" height="60" as="geometry" />
        </mxCell>
        <mxCell id="fGDcRd_FfJGOgD1_VsJv-36" value="nem" style="ellipse;whiteSpace=wrap;html=1;" parent="1" vertex="1">
          <mxGeometry x="-2530" y="232.5" width="160" height="60" as="geometry" />
        </mxCell>
        <mxCell id="fGDcRd_FfJGOgD1_VsJv-37" value="születési_év" style="ellipse;whiteSpace=wrap;html=1;" parent="1" vertex="1">
          <mxGeometry x="-2710" y="227.5" width="160" height="60" as="geometry" />
        </mxCell>
        <mxCell id="fGDcRd_FfJGOgD1_VsJv-38" value="név" style="ellipse;whiteSpace=wrap;html=1;" parent="1" vertex="1">
          <mxGeometry x="-2900" y="225" width="160" height="60" as="geometry" />
        </mxCell>
        <mxCell id="fGDcRd_FfJGOgD1_VsJv-41" value="telefonszám" style="ellipse;shape=doubleEllipse;margin=3;whiteSpace=wrap;html=1;align=center;" parent="1" vertex="1">
          <mxGeometry x="-2160" y="230" width="160" height="65" as="geometry" />
        </mxCell>
        <mxCell id="fGDcRd_FfJGOgD1_VsJv-42" value="Szolgáltatás" style="ellipse;shape=doubleEllipse;margin=3;whiteSpace=wrap;html=1;" parent="1" vertex="1">
          <mxGeometry x="-1530" y="92.5" width="160" height="60" as="geometry" />
        </mxCell>
        <mxCell id="fGDcRd_FfJGOgD1_VsJv-43" value="&lt;b&gt;&lt;u&gt;SZ_ID&lt;/u&gt;&lt;/b&gt;" style="rhombus;whiteSpace=wrap;html=1;" parent="1" vertex="1">
          <mxGeometry x="-1700" y="212.5" width="100" height="100" as="geometry" />
        </mxCell>
        <mxCell id="fGDcRd_FfJGOgD1_VsJv-102" style="edgeStyle=orthogonalEdgeStyle;rounded=0;orthogonalLoop=1;jettySize=auto;html=1;exitX=0.5;exitY=1;exitDx=0;exitDy=0;entryX=0.5;entryY=1;entryDx=0;entryDy=0;dashed=1;" parent="1" source="fGDcRd_FfJGOgD1_VsJv-44" target="fGDcRd_FfJGOgD1_VsJv-33" edge="1">
          <mxGeometry relative="1" as="geometry">
            <Array as="points">
              <mxPoint x="-1370" y="490" />
              <mxPoint x="-1820" y="490" />
            </Array>
          </mxGeometry>
        </mxCell>
        <mxCell id="fGDcRd_FfJGOgD1_VsJv-44" value="Útlevél" style="rhombus;whiteSpace=wrap;html=1;" parent="1" vertex="1">
          <mxGeometry x="-1420" y="212.5" width="100" height="100" as="geometry" />
        </mxCell>
        <mxCell id="fGDcRd_FfJGOgD1_VsJv-103" style="edgeStyle=orthogonalEdgeStyle;rounded=0;orthogonalLoop=1;jettySize=auto;html=1;exitX=0.5;exitY=1;exitDx=0;exitDy=0;entryX=0.5;entryY=1;entryDx=0;entryDy=0;dashed=1;" parent="1" source="fGDcRd_FfJGOgD1_VsJv-45" target="fGDcRd_FfJGOgD1_VsJv-14" edge="1">
          <mxGeometry relative="1" as="geometry" />
        </mxCell>
        <mxCell id="fGDcRd_FfJGOgD1_VsJv-45" value="D_ID" style="rhombus;whiteSpace=wrap;html=1;" parent="1" vertex="1">
          <mxGeometry x="-1310" y="212.5" width="100" height="100" as="geometry" />
        </mxCell>
        <mxCell id="fGDcRd_FfJGOgD1_VsJv-47" value="" style="endArrow=none;html=1;rounded=0;exitX=0.5;exitY=1;exitDx=0;exitDy=0;entryX=0.5;entryY=0;entryDx=0;entryDy=0;" parent="1" source="fGDcRd_FfJGOgD1_VsJv-13" target="fGDcRd_FfJGOgD1_VsJv-14" edge="1">
          <mxGeometry width="50" height="50" relative="1" as="geometry">
            <mxPoint x="-1190" y="170" as="sourcePoint" />
            <mxPoint x="-1140" y="120" as="targetPoint" />
          </mxGeometry>
        </mxCell>
        <mxCell id="fGDcRd_FfJGOgD1_VsJv-48" value="" style="endArrow=none;html=1;rounded=0;exitX=0.5;exitY=1;exitDx=0;exitDy=0;entryX=0.5;entryY=0;entryDx=0;entryDy=0;" parent="1" source="fGDcRd_FfJGOgD1_VsJv-13" target="fGDcRd_FfJGOgD1_VsJv-15" edge="1">
          <mxGeometry width="50" height="50" relative="1" as="geometry">
            <mxPoint x="-540" y="170" as="sourcePoint" />
            <mxPoint x="-1100" y="220" as="targetPoint" />
          </mxGeometry>
        </mxCell>
        <mxCell id="fGDcRd_FfJGOgD1_VsJv-49" value="" style="endArrow=none;html=1;rounded=0;exitX=0.5;exitY=1;exitDx=0;exitDy=0;entryX=0.5;entryY=0;entryDx=0;entryDy=0;" parent="1" source="fGDcRd_FfJGOgD1_VsJv-13" target="fGDcRd_FfJGOgD1_VsJv-17" edge="1">
          <mxGeometry width="50" height="50" relative="1" as="geometry">
            <mxPoint x="-530" y="180" as="sourcePoint" />
            <mxPoint x="-1090" y="230" as="targetPoint" />
          </mxGeometry>
        </mxCell>
        <mxCell id="fGDcRd_FfJGOgD1_VsJv-50" value="" style="endArrow=none;html=1;rounded=0;exitX=0.5;exitY=1;exitDx=0;exitDy=0;entryX=0.5;entryY=0;entryDx=0;entryDy=0;" parent="1" source="fGDcRd_FfJGOgD1_VsJv-13" target="fGDcRd_FfJGOgD1_VsJv-16" edge="1">
          <mxGeometry width="50" height="50" relative="1" as="geometry">
            <mxPoint x="-520" y="190" as="sourcePoint" />
            <mxPoint x="-1080" y="240" as="targetPoint" />
          </mxGeometry>
        </mxCell>
        <mxCell id="fGDcRd_FfJGOgD1_VsJv-51" value="" style="endArrow=none;html=1;rounded=0;exitX=0.5;exitY=1;exitDx=0;exitDy=0;entryX=0.5;entryY=0;entryDx=0;entryDy=0;" parent="1" source="fGDcRd_FfJGOgD1_VsJv-13" target="fGDcRd_FfJGOgD1_VsJv-31" edge="1">
          <mxGeometry width="50" height="50" relative="1" as="geometry">
            <mxPoint x="-510" y="200" as="sourcePoint" />
            <mxPoint x="-1070" y="250" as="targetPoint" />
          </mxGeometry>
        </mxCell>
        <mxCell id="fGDcRd_FfJGOgD1_VsJv-52" value="" style="endArrow=none;html=1;rounded=0;exitX=0.5;exitY=1;exitDx=0;exitDy=0;entryX=0.5;entryY=0;entryDx=0;entryDy=0;" parent="1" source="fGDcRd_FfJGOgD1_VsJv-13" target="fGDcRd_FfJGOgD1_VsJv-19" edge="1">
          <mxGeometry width="50" height="50" relative="1" as="geometry">
            <mxPoint x="-540" y="170" as="sourcePoint" />
            <mxPoint x="-450" y="235" as="targetPoint" />
          </mxGeometry>
        </mxCell>
        <mxCell id="fGDcRd_FfJGOgD1_VsJv-53" value="" style="endArrow=none;html=1;rounded=0;exitX=0.5;exitY=1;exitDx=0;exitDy=0;entryX=0.5;entryY=0;entryDx=0;entryDy=0;" parent="1" source="fGDcRd_FfJGOgD1_VsJv-13" target="fGDcRd_FfJGOgD1_VsJv-18" edge="1">
          <mxGeometry width="50" height="50" relative="1" as="geometry">
            <mxPoint x="-530" y="180" as="sourcePoint" />
            <mxPoint x="-440" y="245" as="targetPoint" />
          </mxGeometry>
        </mxCell>
        <mxCell id="fGDcRd_FfJGOgD1_VsJv-54" value="" style="endArrow=none;html=1;rounded=0;exitX=0.5;exitY=1;exitDx=0;exitDy=0;entryX=0.5;entryY=0;entryDx=0;entryDy=0;" parent="1" source="fGDcRd_FfJGOgD1_VsJv-13" target="fGDcRd_FfJGOgD1_VsJv-28" edge="1">
          <mxGeometry width="50" height="50" relative="1" as="geometry">
            <mxPoint x="-520" y="190" as="sourcePoint" />
            <mxPoint x="-430" y="255" as="targetPoint" />
          </mxGeometry>
        </mxCell>
        <mxCell id="fGDcRd_FfJGOgD1_VsJv-55" value="" style="endArrow=none;html=1;rounded=0;exitX=0.5;exitY=1;exitDx=0;exitDy=0;entryX=0.5;entryY=0;entryDx=0;entryDy=0;" parent="1" source="fGDcRd_FfJGOgD1_VsJv-1" target="fGDcRd_FfJGOgD1_VsJv-2" edge="1">
          <mxGeometry width="50" height="50" relative="1" as="geometry">
            <mxPoint x="-540" y="170" as="sourcePoint" />
            <mxPoint x="30" y="218" as="targetPoint" />
          </mxGeometry>
        </mxCell>
        <mxCell id="fGDcRd_FfJGOgD1_VsJv-56" value="" style="endArrow=none;html=1;rounded=0;exitX=0.5;exitY=1;exitDx=0;exitDy=0;entryX=0.5;entryY=0;entryDx=0;entryDy=0;" parent="1" source="fGDcRd_FfJGOgD1_VsJv-2" target="fGDcRd_FfJGOgD1_VsJv-5" edge="1">
          <mxGeometry width="50" height="50" relative="1" as="geometry">
            <mxPoint x="520" y="170" as="sourcePoint" />
            <mxPoint x="520" y="240" as="targetPoint" />
          </mxGeometry>
        </mxCell>
        <mxCell id="fGDcRd_FfJGOgD1_VsJv-57" value="" style="endArrow=none;html=1;rounded=0;exitX=0.5;exitY=1;exitDx=0;exitDy=0;entryX=0.5;entryY=0;entryDx=0;entryDy=0;" parent="1" source="fGDcRd_FfJGOgD1_VsJv-2" target="fGDcRd_FfJGOgD1_VsJv-7" edge="1">
          <mxGeometry width="50" height="50" relative="1" as="geometry">
            <mxPoint x="520" y="300" as="sourcePoint" />
            <mxPoint x="343" y="370" as="targetPoint" />
          </mxGeometry>
        </mxCell>
        <mxCell id="fGDcRd_FfJGOgD1_VsJv-58" value="" style="endArrow=none;html=1;rounded=0;exitX=0.5;exitY=1;exitDx=0;exitDy=0;entryX=0.5;entryY=0;entryDx=0;entryDy=0;" parent="1" source="fGDcRd_FfJGOgD1_VsJv-2" target="fGDcRd_FfJGOgD1_VsJv-6" edge="1">
          <mxGeometry width="50" height="50" relative="1" as="geometry">
            <mxPoint x="520" y="300" as="sourcePoint" />
            <mxPoint x="520" y="370" as="targetPoint" />
          </mxGeometry>
        </mxCell>
        <mxCell id="fGDcRd_FfJGOgD1_VsJv-59" value="típus" style="ellipse;whiteSpace=wrap;html=1;" parent="1" vertex="1">
          <mxGeometry x="-1590" y="232.5" width="160" height="60" as="geometry" />
        </mxCell>
        <mxCell id="fGDcRd_FfJGOgD1_VsJv-123" style="edgeStyle=orthogonalEdgeStyle;rounded=0;orthogonalLoop=1;jettySize=auto;html=1;exitX=0.5;exitY=1;exitDx=0;exitDy=0;entryX=0.5;entryY=1;entryDx=0;entryDy=0;dashed=1;" parent="1" source="fGDcRd_FfJGOgD1_VsJv-60" target="fGDcRd_FfJGOgD1_VsJv-119" edge="1">
          <mxGeometry relative="1" as="geometry">
            <mxPoint x="-1860" y="632.5" as="sourcePoint" />
            <mxPoint x="-5270" y="630" as="targetPoint" />
            <Array as="points">
              <mxPoint x="-1930" y="770" />
              <mxPoint x="-4460" y="770" />
            </Array>
          </mxGeometry>
        </mxCell>
        <mxCell id="fGDcRd_FfJGOgD1_VsJv-60" value="Járatszám" style="rhombus;whiteSpace=wrap;html=1;" parent="1" vertex="1">
          <mxGeometry x="-1980" y="210" width="100" height="100" as="geometry" />
        </mxCell>
        <mxCell id="fGDcRd_FfJGOgD1_VsJv-61" value="Jegy" style="ellipse;shape=doubleEllipse;margin=3;whiteSpace=wrap;html=1;" parent="1" vertex="1">
          <mxGeometry x="-3900" y="100" width="160" height="60" as="geometry" />
        </mxCell>
        <mxCell id="fGDcRd_FfJGOgD1_VsJv-62" value="&lt;b style=&quot;&quot;&gt;&lt;u style=&quot;&quot;&gt;Jegysorszám&lt;/u&gt;&lt;/b&gt;" style="rhombus;whiteSpace=wrap;html=1;" parent="1" vertex="1">
          <mxGeometry x="-4370" y="220" width="100" height="100" as="geometry" />
        </mxCell>
        <mxCell id="fGDcRd_FfJGOgD1_VsJv-64" value="uticél" style="ellipse;whiteSpace=wrap;html=1;" parent="1" vertex="1">
          <mxGeometry x="-3900" y="235" width="160" height="60" as="geometry" />
        </mxCell>
        <mxCell id="fGDcRd_FfJGOgD1_VsJv-65" value="légitársaság" style="ellipse;whiteSpace=wrap;html=1;" parent="1" vertex="1">
          <mxGeometry x="-4090" y="237.5" width="160" height="60" as="geometry" />
        </mxCell>
        <mxCell id="fGDcRd_FfJGOgD1_VsJv-66" value="ár" style="ellipse;whiteSpace=wrap;html=1;" parent="1" vertex="1">
          <mxGeometry x="-4260" y="237.5" width="160" height="60" as="geometry" />
        </mxCell>
        <mxCell id="fGDcRd_FfJGOgD1_VsJv-67" value="hely" style="ellipse;whiteSpace=wrap;html=1;" parent="1" vertex="1">
          <mxGeometry x="-3330" y="230" width="160" height="60" as="geometry" />
        </mxCell>
        <mxCell id="fGDcRd_FfJGOgD1_VsJv-68" value="erkezesi_ido" style="ellipse;whiteSpace=wrap;html=1;" parent="1" vertex="1">
          <mxGeometry x="-3530" y="230" width="160" height="60" as="geometry" />
        </mxCell>
        <mxCell id="fGDcRd_FfJGOgD1_VsJv-69" value="indulasi_ido" style="ellipse;whiteSpace=wrap;html=1;" parent="1" vertex="1">
          <mxGeometry x="-3700" y="230" width="160" height="60" as="geometry" />
        </mxCell>
        <mxCell id="fGDcRd_FfJGOgD1_VsJv-70" value="ország" style="ellipse;whiteSpace=wrap;html=1;" parent="1" vertex="1">
          <mxGeometry x="-3810" y="330" width="160" height="60" as="geometry" />
        </mxCell>
        <mxCell id="fGDcRd_FfJGOgD1_VsJv-71" value="reptérnév" style="ellipse;whiteSpace=wrap;html=1;" parent="1" vertex="1">
          <mxGeometry x="-3980" y="330" width="160" height="60" as="geometry" />
        </mxCell>
        <mxCell id="fGDcRd_FfJGOgD1_VsJv-72" value="osztály" style="ellipse;whiteSpace=wrap;html=1;" parent="1" vertex="1">
          <mxGeometry x="-3420" y="330" width="160" height="60" as="geometry" />
        </mxCell>
        <mxCell id="fGDcRd_FfJGOgD1_VsJv-73" value="székszám" style="ellipse;whiteSpace=wrap;html=1;" parent="1" vertex="1">
          <mxGeometry x="-3230" y="330" width="160" height="60" as="geometry" />
        </mxCell>
        <mxCell id="fGDcRd_FfJGOgD1_VsJv-75" value="" style="endArrow=none;html=1;rounded=0;exitX=0.5;exitY=1;exitDx=0;exitDy=0;entryX=0.5;entryY=0;entryDx=0;entryDy=0;" parent="1" source="fGDcRd_FfJGOgD1_VsJv-61" target="fGDcRd_FfJGOgD1_VsJv-65" edge="1">
          <mxGeometry width="50" height="50" relative="1" as="geometry">
            <mxPoint x="-3700" y="420" as="sourcePoint" />
            <mxPoint x="-3650" y="370" as="targetPoint" />
          </mxGeometry>
        </mxCell>
        <mxCell id="fGDcRd_FfJGOgD1_VsJv-76" value="" style="endArrow=none;html=1;rounded=0;exitX=0.5;exitY=1;exitDx=0;exitDy=0;entryX=0.5;entryY=0;entryDx=0;entryDy=0;" parent="1" source="fGDcRd_FfJGOgD1_VsJv-61" target="fGDcRd_FfJGOgD1_VsJv-64" edge="1">
          <mxGeometry width="50" height="50" relative="1" as="geometry">
            <mxPoint x="-3810" y="170" as="sourcePoint" />
            <mxPoint x="-3900" y="240" as="targetPoint" />
          </mxGeometry>
        </mxCell>
        <mxCell id="fGDcRd_FfJGOgD1_VsJv-79" value="" style="endArrow=none;html=1;rounded=0;entryX=0.5;entryY=0;entryDx=0;entryDy=0;" parent="1" target="fGDcRd_FfJGOgD1_VsJv-62" edge="1">
          <mxGeometry width="50" height="50" relative="1" as="geometry">
            <mxPoint x="-3820" y="160" as="sourcePoint" />
            <mxPoint x="-3880" y="260" as="targetPoint" />
          </mxGeometry>
        </mxCell>
        <mxCell id="fGDcRd_FfJGOgD1_VsJv-80" value="" style="endArrow=none;html=1;rounded=0;exitX=0.5;exitY=1;exitDx=0;exitDy=0;entryX=0.5;entryY=0;entryDx=0;entryDy=0;" parent="1" source="fGDcRd_FfJGOgD1_VsJv-61" target="fGDcRd_FfJGOgD1_VsJv-66" edge="1">
          <mxGeometry width="50" height="50" relative="1" as="geometry">
            <mxPoint x="-3780" y="200" as="sourcePoint" />
            <mxPoint x="-3870" y="270" as="targetPoint" />
          </mxGeometry>
        </mxCell>
        <mxCell id="fGDcRd_FfJGOgD1_VsJv-81" value="" style="endArrow=none;html=1;rounded=0;exitX=0.5;exitY=0;exitDx=0;exitDy=0;entryX=0.5;entryY=1;entryDx=0;entryDy=0;" parent="1" source="fGDcRd_FfJGOgD1_VsJv-69" target="fGDcRd_FfJGOgD1_VsJv-61" edge="1">
          <mxGeometry width="50" height="50" relative="1" as="geometry">
            <mxPoint x="-3770" y="210" as="sourcePoint" />
            <mxPoint x="-3860" y="280" as="targetPoint" />
          </mxGeometry>
        </mxCell>
        <mxCell id="fGDcRd_FfJGOgD1_VsJv-82" value="" style="endArrow=none;html=1;rounded=0;exitX=0.5;exitY=0;exitDx=0;exitDy=0;" parent="1" source="fGDcRd_FfJGOgD1_VsJv-68" edge="1">
          <mxGeometry width="50" height="50" relative="1" as="geometry">
            <mxPoint x="-3760" y="220" as="sourcePoint" />
            <mxPoint x="-3820" y="160" as="targetPoint" />
          </mxGeometry>
        </mxCell>
        <mxCell id="fGDcRd_FfJGOgD1_VsJv-83" value="" style="endArrow=none;html=1;rounded=0;exitX=0.5;exitY=0;exitDx=0;exitDy=0;entryX=0.5;entryY=1;entryDx=0;entryDy=0;" parent="1" source="fGDcRd_FfJGOgD1_VsJv-67" target="fGDcRd_FfJGOgD1_VsJv-61" edge="1">
          <mxGeometry width="50" height="50" relative="1" as="geometry">
            <mxPoint x="-3750" y="230" as="sourcePoint" />
            <mxPoint x="-3840" y="300" as="targetPoint" />
          </mxGeometry>
        </mxCell>
        <mxCell id="fGDcRd_FfJGOgD1_VsJv-84" value="" style="endArrow=none;html=1;rounded=0;exitX=0.5;exitY=1;exitDx=0;exitDy=0;entryX=0.5;entryY=0;entryDx=0;entryDy=0;" parent="1" source="fGDcRd_FfJGOgD1_VsJv-64" target="fGDcRd_FfJGOgD1_VsJv-70" edge="1">
          <mxGeometry width="50" height="50" relative="1" as="geometry">
            <mxPoint x="-3850" y="255" as="sourcePoint" />
            <mxPoint x="-3940" y="325" as="targetPoint" />
          </mxGeometry>
        </mxCell>
        <mxCell id="fGDcRd_FfJGOgD1_VsJv-85" value="" style="endArrow=none;html=1;rounded=0;exitX=0.5;exitY=0;exitDx=0;exitDy=0;entryX=0.5;entryY=1;entryDx=0;entryDy=0;" parent="1" source="fGDcRd_FfJGOgD1_VsJv-71" target="fGDcRd_FfJGOgD1_VsJv-64" edge="1">
          <mxGeometry width="50" height="50" relative="1" as="geometry">
            <mxPoint x="-4180" y="315" as="sourcePoint" />
            <mxPoint x="-4260" y="375" as="targetPoint" />
          </mxGeometry>
        </mxCell>
        <mxCell id="fGDcRd_FfJGOgD1_VsJv-86" value="" style="endArrow=none;html=1;rounded=0;exitX=0.5;exitY=1;exitDx=0;exitDy=0;entryX=0.5;entryY=0;entryDx=0;entryDy=0;" parent="1" source="fGDcRd_FfJGOgD1_VsJv-67" target="fGDcRd_FfJGOgD1_VsJv-72" edge="1">
          <mxGeometry width="50" height="50" relative="1" as="geometry">
            <mxPoint x="-4170" y="325" as="sourcePoint" />
            <mxPoint x="-4250" y="385" as="targetPoint" />
          </mxGeometry>
        </mxCell>
        <mxCell id="fGDcRd_FfJGOgD1_VsJv-87" value="" style="endArrow=none;html=1;rounded=0;entryX=0.5;entryY=0;entryDx=0;entryDy=0;exitX=0.5;exitY=1;exitDx=0;exitDy=0;" parent="1" source="fGDcRd_FfJGOgD1_VsJv-67" target="fGDcRd_FfJGOgD1_VsJv-73" edge="1">
          <mxGeometry width="50" height="50" relative="1" as="geometry">
            <mxPoint x="-3300" y="305" as="sourcePoint" />
            <mxPoint x="-3210" y="355" as="targetPoint" />
          </mxGeometry>
        </mxCell>
        <mxCell id="fGDcRd_FfJGOgD1_VsJv-89" value="" style="endArrow=none;html=1;rounded=0;exitX=0.5;exitY=0;exitDx=0;exitDy=0;entryX=0.5;entryY=1;entryDx=0;entryDy=0;" parent="1" source="fGDcRd_FfJGOgD1_VsJv-60" target="fGDcRd_FfJGOgD1_VsJv-32" edge="1">
          <mxGeometry width="50" height="50" relative="1" as="geometry">
            <mxPoint x="-2580" y="350" as="sourcePoint" />
            <mxPoint x="-2530" y="300" as="targetPoint" />
          </mxGeometry>
        </mxCell>
        <mxCell id="fGDcRd_FfJGOgD1_VsJv-90" value="" style="endArrow=none;html=1;rounded=0;exitX=0.5;exitY=0;exitDx=0;exitDy=0;entryX=0.5;entryY=1;entryDx=0;entryDy=0;" parent="1" source="fGDcRd_FfJGOgD1_VsJv-33" target="fGDcRd_FfJGOgD1_VsJv-32" edge="1">
          <mxGeometry width="50" height="50" relative="1" as="geometry">
            <mxPoint x="-2970" y="228" as="sourcePoint" />
            <mxPoint x="-2440" y="170" as="targetPoint" />
          </mxGeometry>
        </mxCell>
        <mxCell id="fGDcRd_FfJGOgD1_VsJv-91" value="" style="endArrow=none;html=1;rounded=0;exitX=0.5;exitY=0;exitDx=0;exitDy=0;entryX=0.5;entryY=1;entryDx=0;entryDy=0;" parent="1" source="fGDcRd_FfJGOgD1_VsJv-38" target="fGDcRd_FfJGOgD1_VsJv-32" edge="1">
          <mxGeometry width="50" height="50" relative="1" as="geometry">
            <mxPoint x="-2960" y="238" as="sourcePoint" />
            <mxPoint x="-2430" y="180" as="targetPoint" />
          </mxGeometry>
        </mxCell>
        <mxCell id="fGDcRd_FfJGOgD1_VsJv-92" value="" style="endArrow=none;html=1;rounded=0;exitX=0.5;exitY=0;exitDx=0;exitDy=0;" parent="1" source="fGDcRd_FfJGOgD1_VsJv-37" edge="1">
          <mxGeometry width="50" height="50" relative="1" as="geometry">
            <mxPoint x="-2680" y="248" as="sourcePoint" />
            <mxPoint x="-2450" y="160" as="targetPoint" />
          </mxGeometry>
        </mxCell>
        <mxCell id="fGDcRd_FfJGOgD1_VsJv-93" value="" style="endArrow=none;html=1;rounded=0;exitX=0.5;exitY=0;exitDx=0;exitDy=0;entryX=0.5;entryY=1;entryDx=0;entryDy=0;" parent="1" source="fGDcRd_FfJGOgD1_VsJv-36" target="fGDcRd_FfJGOgD1_VsJv-32" edge="1">
          <mxGeometry width="50" height="50" relative="1" as="geometry">
            <mxPoint x="-2670" y="258" as="sourcePoint" />
            <mxPoint x="-2430" y="180" as="targetPoint" />
          </mxGeometry>
        </mxCell>
        <mxCell id="fGDcRd_FfJGOgD1_VsJv-94" value="" style="endArrow=none;html=1;rounded=0;exitX=0.5;exitY=0;exitDx=0;exitDy=0;entryX=0.5;entryY=1;entryDx=0;entryDy=0;" parent="1" source="fGDcRd_FfJGOgD1_VsJv-35" target="fGDcRd_FfJGOgD1_VsJv-32" edge="1">
          <mxGeometry width="50" height="50" relative="1" as="geometry">
            <mxPoint x="-2660" y="268" as="sourcePoint" />
            <mxPoint x="-2420" y="190" as="targetPoint" />
          </mxGeometry>
        </mxCell>
        <mxCell id="fGDcRd_FfJGOgD1_VsJv-95" value="" style="endArrow=none;html=1;rounded=0;exitX=0.5;exitY=0;exitDx=0;exitDy=0;entryX=0.5;entryY=1;entryDx=0;entryDy=0;" parent="1" source="fGDcRd_FfJGOgD1_VsJv-41" target="fGDcRd_FfJGOgD1_VsJv-32" edge="1">
          <mxGeometry width="50" height="50" relative="1" as="geometry">
            <mxPoint x="-2650" y="278" as="sourcePoint" />
            <mxPoint x="-2410" y="200" as="targetPoint" />
          </mxGeometry>
        </mxCell>
        <mxCell id="fGDcRd_FfJGOgD1_VsJv-97" value="" style="endArrow=none;html=1;rounded=0;entryX=0.5;entryY=0;entryDx=0;entryDy=0;exitX=0.5;exitY=1;exitDx=0;exitDy=0;" parent="1" source="fGDcRd_FfJGOgD1_VsJv-42" target="fGDcRd_FfJGOgD1_VsJv-44" edge="1">
          <mxGeometry width="50" height="50" relative="1" as="geometry">
            <mxPoint x="-1600" y="472.5" as="sourcePoint" />
            <mxPoint x="-910" y="292.5" as="targetPoint" />
          </mxGeometry>
        </mxCell>
        <mxCell id="fGDcRd_FfJGOgD1_VsJv-98" value="" style="endArrow=none;html=1;rounded=0;exitX=0.5;exitY=1;exitDx=0;exitDy=0;entryX=0.5;entryY=0;entryDx=0;entryDy=0;" parent="1" source="fGDcRd_FfJGOgD1_VsJv-42" target="fGDcRd_FfJGOgD1_VsJv-45" edge="1">
          <mxGeometry width="50" height="50" relative="1" as="geometry">
            <mxPoint x="-1512" y="161.5" as="sourcePoint" />
            <mxPoint x="-1630" y="222.5" as="targetPoint" />
          </mxGeometry>
        </mxCell>
        <mxCell id="fGDcRd_FfJGOgD1_VsJv-99" value="" style="endArrow=none;html=1;rounded=0;exitX=0.5;exitY=1;exitDx=0;exitDy=0;entryX=0.5;entryY=0;entryDx=0;entryDy=0;" parent="1" source="fGDcRd_FfJGOgD1_VsJv-42" target="fGDcRd_FfJGOgD1_VsJv-43" edge="1">
          <mxGeometry width="50" height="50" relative="1" as="geometry">
            <mxPoint x="-1502" y="171.5" as="sourcePoint" />
            <mxPoint x="-1620" y="232.5" as="targetPoint" />
          </mxGeometry>
        </mxCell>
        <mxCell id="fGDcRd_FfJGOgD1_VsJv-100" value="" style="endArrow=none;html=1;rounded=0;exitX=0.5;exitY=1;exitDx=0;exitDy=0;entryX=0.5;entryY=0;entryDx=0;entryDy=0;" parent="1" source="fGDcRd_FfJGOgD1_VsJv-42" target="fGDcRd_FfJGOgD1_VsJv-59" edge="1">
          <mxGeometry width="50" height="50" relative="1" as="geometry">
            <mxPoint x="-1492" y="181.5" as="sourcePoint" />
            <mxPoint x="-1610" y="242.5" as="targetPoint" />
          </mxGeometry>
        </mxCell>
        <mxCell id="fGDcRd_FfJGOgD1_VsJv-104" value="" style="endArrow=none;html=1;rounded=0;exitX=0.5;exitY=0;exitDx=0;exitDy=0;entryX=0.5;entryY=1;entryDx=0;entryDy=0;" parent="1" source="fGDcRd_FfJGOgD1_VsJv-3" target="fGDcRd_FfJGOgD1_VsJv-1" edge="1">
          <mxGeometry width="50" height="50" relative="1" as="geometry">
            <mxPoint y="190" as="sourcePoint" />
            <mxPoint x="50" y="140" as="targetPoint" />
          </mxGeometry>
        </mxCell>
        <mxCell id="fGDcRd_FfJGOgD1_VsJv-105" value="Légitársaság" style="ellipse;shape=doubleEllipse;margin=3;whiteSpace=wrap;html=1;" parent="1" vertex="1">
          <mxGeometry x="1020" y="90" width="160" height="60" as="geometry" />
        </mxCell>
        <mxCell id="fGDcRd_FfJGOgD1_VsJv-106" value="légitársaságnév" style="ellipse;whiteSpace=wrap;html=1;" parent="1" vertex="1">
          <mxGeometry x="1020" y="225" width="160" height="60" as="geometry" />
        </mxCell>
        <mxCell id="fGDcRd_FfJGOgD1_VsJv-107" value="&lt;b&gt;&lt;u&gt;&lt;font style=&quot;font-size: 11px;&quot;&gt;Légitársaság_ID&lt;/font&gt;&lt;/u&gt;&lt;/b&gt;" style="rhombus;whiteSpace=wrap;html=1;" parent="1" vertex="1">
          <mxGeometry x="1200" y="205" width="100" height="100" as="geometry" />
        </mxCell>
        <mxCell id="fGDcRd_FfJGOgD1_VsJv-108" value="" style="endArrow=none;html=1;rounded=0;exitX=0.5;exitY=0;exitDx=0;exitDy=0;entryX=0.5;entryY=1;entryDx=0;entryDy=0;" parent="1" source="fGDcRd_FfJGOgD1_VsJv-107" target="fGDcRd_FfJGOgD1_VsJv-105" edge="1">
          <mxGeometry width="50" height="50" relative="1" as="geometry">
            <mxPoint x="580" y="190" as="sourcePoint" />
            <mxPoint x="630" y="140" as="targetPoint" />
          </mxGeometry>
        </mxCell>
        <mxCell id="fGDcRd_FfJGOgD1_VsJv-109" value="" style="endArrow=none;html=1;rounded=0;exitX=0.5;exitY=0;exitDx=0;exitDy=0;entryX=0.5;entryY=1;entryDx=0;entryDy=0;" parent="1" source="fGDcRd_FfJGOgD1_VsJv-106" target="fGDcRd_FfJGOgD1_VsJv-105" edge="1">
          <mxGeometry width="50" height="50" relative="1" as="geometry">
            <mxPoint x="990" y="218" as="sourcePoint" />
            <mxPoint x="1110" y="160" as="targetPoint" />
          </mxGeometry>
        </mxCell>
        <mxCell id="yyI9dhbXhJBttVIBJ3Yi-2" style="edgeStyle=orthogonalEdgeStyle;rounded=0;orthogonalLoop=1;jettySize=auto;html=1;exitX=0.5;exitY=1;exitDx=0;exitDy=0;entryX=1;entryY=1;entryDx=0;entryDy=0;fontFamily=Helvetica;fontSize=12;fontColor=default;dashed=1;" edge="1" parent="1" source="fGDcRd_FfJGOgD1_VsJv-110" target="fGDcRd_FfJGOgD1_VsJv-3">
          <mxGeometry relative="1" as="geometry">
            <Array as="points">
              <mxPoint x="930" y="640" />
              <mxPoint x="245" y="640" />
            </Array>
          </mxGeometry>
        </mxCell>
        <mxCell id="fGDcRd_FfJGOgD1_VsJv-110" value="Reptér_ID" style="rhombus;whiteSpace=wrap;html=1;" parent="1" vertex="1">
          <mxGeometry x="880" y="205" width="100" height="100" as="geometry" />
        </mxCell>
        <mxCell id="fGDcRd_FfJGOgD1_VsJv-112" value="" style="endArrow=none;html=1;rounded=0;exitX=0.5;exitY=0;exitDx=0;exitDy=0;entryX=0.5;entryY=1;entryDx=0;entryDy=0;" parent="1" source="fGDcRd_FfJGOgD1_VsJv-110" target="fGDcRd_FfJGOgD1_VsJv-105" edge="1">
          <mxGeometry width="50" height="50" relative="1" as="geometry">
            <mxPoint x="580" y="190" as="sourcePoint" />
            <mxPoint x="630" y="140" as="targetPoint" />
          </mxGeometry>
        </mxCell>
        <mxCell id="fGDcRd_FfJGOgD1_VsJv-113" value="Járat" style="ellipse;shape=doubleEllipse;margin=3;whiteSpace=wrap;html=1;" parent="1" vertex="1">
          <mxGeometry x="-4962" y="100" width="160" height="60" as="geometry" />
        </mxCell>
        <mxCell id="fGDcRd_FfJGOgD1_VsJv-114" value="státusz" style="ellipse;whiteSpace=wrap;html=1;" parent="1" vertex="1">
          <mxGeometry x="-5230" y="232.5" width="160" height="60" as="geometry" />
        </mxCell>
        <mxCell id="fGDcRd_FfJGOgD1_VsJv-115" value="indulási_idő" style="ellipse;whiteSpace=wrap;html=1;" parent="1" vertex="1">
          <mxGeometry x="-5050" y="232.5" width="160" height="60" as="geometry" />
        </mxCell>
        <mxCell id="fGDcRd_FfJGOgD1_VsJv-116" value="érkezési_idő" style="ellipse;whiteSpace=wrap;html=1;" parent="1" vertex="1">
          <mxGeometry x="-4870" y="235" width="160" height="60" as="geometry" />
        </mxCell>
        <mxCell id="fGDcRd_FfJGOgD1_VsJv-117" value="Célállomás" style="ellipse;whiteSpace=wrap;html=1;" parent="1" vertex="1">
          <mxGeometry x="-4690" y="232.5" width="160" height="60" as="geometry" />
        </mxCell>
        <mxCell id="fGDcRd_FfJGOgD1_VsJv-119" value="&lt;b&gt;&lt;u&gt;Járatszám&lt;/u&gt;&lt;/b&gt;" style="rhombus;whiteSpace=wrap;html=1;" parent="1" vertex="1">
          <mxGeometry x="-4510" y="212.5" width="100" height="100" as="geometry" />
        </mxCell>
        <mxCell id="fGDcRd_FfJGOgD1_VsJv-122" style="edgeStyle=orthogonalEdgeStyle;rounded=0;orthogonalLoop=1;jettySize=auto;html=1;exitX=0.5;exitY=1;exitDx=0;exitDy=0;entryX=0.5;entryY=1;entryDx=0;entryDy=0;dashed=1;" parent="1" source="fGDcRd_FfJGOgD1_VsJv-120" target="fGDcRd_FfJGOgD1_VsJv-107" edge="1">
          <mxGeometry relative="1" as="geometry">
            <Array as="points">
              <mxPoint x="-5300" y="890" />
              <mxPoint x="1250" y="890" />
            </Array>
          </mxGeometry>
        </mxCell>
        <mxCell id="fGDcRd_FfJGOgD1_VsJv-120" value="Légitársaság_ID" style="rhombus;whiteSpace=wrap;html=1;" parent="1" vertex="1">
          <mxGeometry x="-5350" y="217.5" width="100" height="100" as="geometry" />
        </mxCell>
        <mxCell id="fGDcRd_FfJGOgD1_VsJv-125" style="edgeStyle=orthogonalEdgeStyle;rounded=0;orthogonalLoop=1;jettySize=auto;html=1;exitX=0.5;exitY=1;exitDx=0;exitDy=0;entryX=0.5;entryY=1;entryDx=0;entryDy=0;dashed=1;" parent="1" source="fGDcRd_FfJGOgD1_VsJv-124" target="fGDcRd_FfJGOgD1_VsJv-62" edge="1">
          <mxGeometry relative="1" as="geometry">
            <mxPoint x="-2960" y="500" as="sourcePoint" />
            <mxPoint x="-4300" y="500" as="targetPoint" />
            <Array as="points">
              <mxPoint x="-2980" y="520" />
              <mxPoint x="-4320" y="520" />
            </Array>
          </mxGeometry>
        </mxCell>
        <mxCell id="fGDcRd_FfJGOgD1_VsJv-124" value="Jegysorszám" style="rhombus;whiteSpace=wrap;html=1;" parent="1" vertex="1">
          <mxGeometry x="-3030" y="220" width="100" height="100" as="geometry" />
        </mxCell>
        <mxCell id="fGDcRd_FfJGOgD1_VsJv-127" value="" style="endArrow=none;html=1;rounded=0;exitX=0.5;exitY=1;exitDx=0;exitDy=0;entryX=0.5;entryY=0;entryDx=0;entryDy=0;" parent="1" source="fGDcRd_FfJGOgD1_VsJv-113" target="fGDcRd_FfJGOgD1_VsJv-120" edge="1">
          <mxGeometry width="50" height="50" relative="1" as="geometry">
            <mxPoint x="-5370" y="740" as="sourcePoint" />
            <mxPoint x="-5320" y="690" as="targetPoint" />
          </mxGeometry>
        </mxCell>
        <mxCell id="fGDcRd_FfJGOgD1_VsJv-128" value="" style="endArrow=none;html=1;rounded=0;exitX=0.5;exitY=0;exitDx=0;exitDy=0;entryX=0.5;entryY=1;entryDx=0;entryDy=0;" parent="1" source="fGDcRd_FfJGOgD1_VsJv-114" target="fGDcRd_FfJGOgD1_VsJv-113" edge="1">
          <mxGeometry width="50" height="50" relative="1" as="geometry">
            <mxPoint x="-5370" y="740" as="sourcePoint" />
            <mxPoint x="-5320" y="690" as="targetPoint" />
          </mxGeometry>
        </mxCell>
        <mxCell id="fGDcRd_FfJGOgD1_VsJv-129" value="" style="endArrow=none;html=1;rounded=0;exitX=0.5;exitY=0;exitDx=0;exitDy=0;entryX=0.5;entryY=1;entryDx=0;entryDy=0;" parent="1" source="fGDcRd_FfJGOgD1_VsJv-115" target="fGDcRd_FfJGOgD1_VsJv-113" edge="1">
          <mxGeometry width="50" height="50" relative="1" as="geometry">
            <mxPoint x="-5370" y="740" as="sourcePoint" />
            <mxPoint x="-5320" y="690" as="targetPoint" />
          </mxGeometry>
        </mxCell>
        <mxCell id="fGDcRd_FfJGOgD1_VsJv-130" value="" style="endArrow=none;html=1;rounded=0;exitX=0.5;exitY=0;exitDx=0;exitDy=0;entryX=0.5;entryY=1;entryDx=0;entryDy=0;" parent="1" source="fGDcRd_FfJGOgD1_VsJv-116" target="fGDcRd_FfJGOgD1_VsJv-113" edge="1">
          <mxGeometry width="50" height="50" relative="1" as="geometry">
            <mxPoint x="-5370" y="740" as="sourcePoint" />
            <mxPoint x="-5320" y="690" as="targetPoint" />
          </mxGeometry>
        </mxCell>
        <mxCell id="fGDcRd_FfJGOgD1_VsJv-131" value="" style="endArrow=none;html=1;rounded=0;exitX=0.5;exitY=1;exitDx=0;exitDy=0;entryX=0.5;entryY=0;entryDx=0;entryDy=0;" parent="1" source="fGDcRd_FfJGOgD1_VsJv-113" target="fGDcRd_FfJGOgD1_VsJv-117" edge="1">
          <mxGeometry width="50" height="50" relative="1" as="geometry">
            <mxPoint x="-5370" y="740" as="sourcePoint" />
            <mxPoint x="-5320" y="690" as="targetPoint" />
          </mxGeometry>
        </mxCell>
        <mxCell id="fGDcRd_FfJGOgD1_VsJv-132" value="" style="endArrow=none;html=1;rounded=0;exitX=0.5;exitY=1;exitDx=0;exitDy=0;entryX=0.5;entryY=0;entryDx=0;entryDy=0;" parent="1" source="fGDcRd_FfJGOgD1_VsJv-113" target="fGDcRd_FfJGOgD1_VsJv-119" edge="1">
          <mxGeometry width="50" height="50" relative="1" as="geometry">
            <mxPoint x="-5370" y="740" as="sourcePoint" />
            <mxPoint x="-5320" y="690" as="targetPoint" />
          </mxGeometry>
        </mxCell>
        <mxCell id="fGDcRd_FfJGOgD1_VsJv-133" value="" style="endArrow=none;html=1;rounded=0;exitX=0.5;exitY=0;exitDx=0;exitDy=0;entryX=0.5;entryY=1;entryDx=0;entryDy=0;" parent="1" source="fGDcRd_FfJGOgD1_VsJv-124" target="fGDcRd_FfJGOgD1_VsJv-32" edge="1">
          <mxGeometry width="50" height="50" relative="1" as="geometry">
            <mxPoint x="-3180" y="640" as="sourcePoint" />
            <mxPoint x="-3130" y="590" as="targetPoint" />
          </mxGeometry>
        </mxCell>
        <mxCell id="fGDcRd_FfJGOgD1_VsJv-136" value="" style="endArrow=none;dashed=1;html=1;rounded=0;" parent="1" edge="1">
          <mxGeometry width="50" height="50" relative="1" as="geometry">
            <mxPoint x="-5340" y="280" as="sourcePoint" />
            <mxPoint x="-5260" y="280" as="targetPoint" />
          </mxGeometry>
        </mxCell>
        <mxCell id="fGDcRd_FfJGOgD1_VsJv-137" value="" style="endArrow=none;dashed=1;html=1;rounded=0;" parent="1" edge="1">
          <mxGeometry width="50" height="50" relative="1" as="geometry">
            <mxPoint x="-3015" y="280" as="sourcePoint" />
            <mxPoint x="-2945" y="280" as="targetPoint" />
          </mxGeometry>
        </mxCell>
        <mxCell id="fGDcRd_FfJGOgD1_VsJv-138" value="" style="endArrow=none;dashed=1;html=1;rounded=0;" parent="1" edge="1">
          <mxGeometry width="50" height="50" relative="1" as="geometry">
            <mxPoint x="-1960" y="267.48" as="sourcePoint" />
            <mxPoint x="-1900" y="267.24" as="targetPoint" />
          </mxGeometry>
        </mxCell>
        <mxCell id="fGDcRd_FfJGOgD1_VsJv-139" value="" style="endArrow=none;dashed=1;html=1;rounded=0;" parent="1" edge="1">
          <mxGeometry width="50" height="50" relative="1" as="geometry">
            <mxPoint x="-1395" y="270.22" as="sourcePoint" />
            <mxPoint x="-1345" y="269.74" as="targetPoint" />
          </mxGeometry>
        </mxCell>
        <mxCell id="fGDcRd_FfJGOgD1_VsJv-140" value="" style="endArrow=none;dashed=1;html=1;rounded=0;" parent="1" edge="1">
          <mxGeometry width="50" height="50" relative="1" as="geometry">
            <mxPoint x="-1277.5" y="272.46000000000004" as="sourcePoint" />
            <mxPoint x="-1242.5" y="272.24" as="targetPoint" />
          </mxGeometry>
        </mxCell>
        <mxCell id="fGDcRd_FfJGOgD1_VsJv-141" value="" style="endArrow=none;dashed=1;html=1;rounded=0;" parent="1" edge="1">
          <mxGeometry width="50" height="50" relative="1" as="geometry">
            <mxPoint x="-5" y="267.72" as="sourcePoint" />
            <mxPoint x="45" y="267.24" as="targetPoint" />
          </mxGeometry>
        </mxCell>
        <mxCell id="fGDcRd_FfJGOgD1_VsJv-142" value="" style="endArrow=none;dashed=1;html=1;rounded=0;" parent="1" edge="1">
          <mxGeometry width="50" height="50" relative="1" as="geometry">
            <mxPoint x="905" y="265.22" as="sourcePoint" />
            <mxPoint x="955" y="264.74" as="targetPoint" />
          </mxGeometry>
        </mxCell>
        <mxCell id="fGDcRd_FfJGOgD1_VsJv-144" value="" style="rounded=0;whiteSpace=wrap;html=1;" parent="1" vertex="1">
          <mxGeometry x="-5170" y="340" width="40" height="60" as="geometry" />
        </mxCell>
        <mxCell id="fGDcRd_FfJGOgD1_VsJv-145" value="" style="rounded=0;whiteSpace=wrap;html=1;" parent="1" vertex="1">
          <mxGeometry x="-4990" y="340" width="40" height="60" as="geometry" />
        </mxCell>
        <mxCell id="fGDcRd_FfJGOgD1_VsJv-146" value="" style="rounded=0;whiteSpace=wrap;html=1;" parent="1" vertex="1">
          <mxGeometry x="-4810" y="340" width="40" height="60" as="geometry" />
        </mxCell>
        <mxCell id="fGDcRd_FfJGOgD1_VsJv-147" value="" style="rounded=0;whiteSpace=wrap;html=1;" parent="1" vertex="1">
          <mxGeometry x="-4630" y="340" width="40" height="60" as="geometry" />
        </mxCell>
        <mxCell id="fGDcRd_FfJGOgD1_VsJv-148" value="" style="rounded=0;whiteSpace=wrap;html=1;" parent="1" vertex="1">
          <mxGeometry x="-4200" y="340" width="40" height="60" as="geometry" />
        </mxCell>
        <mxCell id="fGDcRd_FfJGOgD1_VsJv-149" value="" style="rounded=0;whiteSpace=wrap;html=1;" parent="1" vertex="1">
          <mxGeometry x="-4030" y="340" width="40" height="60" as="geometry" />
        </mxCell>
        <mxCell id="fGDcRd_FfJGOgD1_VsJv-151" value="" style="rounded=0;whiteSpace=wrap;html=1;" parent="1" vertex="1">
          <mxGeometry x="-3640" y="340" width="40" height="60" as="geometry" />
        </mxCell>
        <mxCell id="fGDcRd_FfJGOgD1_VsJv-152" value="" style="rounded=0;whiteSpace=wrap;html=1;" parent="1" vertex="1">
          <mxGeometry x="-3470" y="340" width="40" height="60" as="geometry" />
        </mxCell>
        <mxCell id="fGDcRd_FfJGOgD1_VsJv-153" value="" style="rounded=0;whiteSpace=wrap;html=1;" parent="1" vertex="1">
          <mxGeometry x="-2840" y="340" width="40" height="60" as="geometry" />
        </mxCell>
        <mxCell id="fGDcRd_FfJGOgD1_VsJv-154" value="" style="rounded=0;whiteSpace=wrap;html=1;" parent="1" vertex="1">
          <mxGeometry x="-2650" y="340" width="40" height="60" as="geometry" />
        </mxCell>
        <mxCell id="fGDcRd_FfJGOgD1_VsJv-155" value="" style="rounded=0;whiteSpace=wrap;html=1;" parent="1" vertex="1">
          <mxGeometry x="-2470" y="340" width="40" height="60" as="geometry" />
        </mxCell>
        <mxCell id="fGDcRd_FfJGOgD1_VsJv-156" value="" style="rounded=0;whiteSpace=wrap;html=1;" parent="1" vertex="1">
          <mxGeometry x="-2280" y="340" width="40" height="60" as="geometry" />
        </mxCell>
        <mxCell id="fGDcRd_FfJGOgD1_VsJv-157" value="" style="rounded=0;whiteSpace=wrap;html=1;" parent="1" vertex="1">
          <mxGeometry x="-2100" y="340" width="40" height="60" as="geometry" />
        </mxCell>
        <mxCell id="fGDcRd_FfJGOgD1_VsJv-158" value="" style="rounded=0;whiteSpace=wrap;html=1;" parent="1" vertex="1">
          <mxGeometry x="-1530" y="340" width="40" height="60" as="geometry" />
        </mxCell>
        <mxCell id="fGDcRd_FfJGOgD1_VsJv-159" value="" style="rounded=0;whiteSpace=wrap;html=1;" parent="1" vertex="1">
          <mxGeometry x="-990" y="340" width="40" height="60" as="geometry" />
        </mxCell>
        <mxCell id="fGDcRd_FfJGOgD1_VsJv-160" value="" style="rounded=0;whiteSpace=wrap;html=1;" parent="1" vertex="1">
          <mxGeometry x="-820" y="340" width="40" height="60" as="geometry" />
        </mxCell>
        <mxCell id="fGDcRd_FfJGOgD1_VsJv-161" value="" style="rounded=0;whiteSpace=wrap;html=1;" parent="1" vertex="1">
          <mxGeometry x="-650" y="340" width="40" height="60" as="geometry" />
        </mxCell>
        <mxCell id="fGDcRd_FfJGOgD1_VsJv-162" value="" style="rounded=0;whiteSpace=wrap;html=1;" parent="1" vertex="1">
          <mxGeometry x="-480" y="340" width="40" height="60" as="geometry" />
        </mxCell>
        <mxCell id="fGDcRd_FfJGOgD1_VsJv-163" value="" style="rounded=0;whiteSpace=wrap;html=1;" parent="1" vertex="1">
          <mxGeometry x="-310" y="340" width="40" height="60" as="geometry" />
        </mxCell>
        <mxCell id="fGDcRd_FfJGOgD1_VsJv-164" value="" style="rounded=0;whiteSpace=wrap;html=1;" parent="1" vertex="1">
          <mxGeometry x="-140" y="340" width="40" height="60" as="geometry" />
        </mxCell>
        <mxCell id="fGDcRd_FfJGOgD1_VsJv-165" value="" style="rounded=0;whiteSpace=wrap;html=1;" parent="1" vertex="1">
          <mxGeometry x="1080" y="340" width="40" height="60" as="geometry" />
        </mxCell>
        <mxCell id="fGDcRd_FfJGOgD1_VsJv-167" value="" style="rounded=0;whiteSpace=wrap;html=1;" parent="1" vertex="1">
          <mxGeometry x="-3920" y="420" width="40" height="60" as="geometry" />
        </mxCell>
        <mxCell id="fGDcRd_FfJGOgD1_VsJv-168" value="" style="rounded=0;whiteSpace=wrap;html=1;" parent="1" vertex="1">
          <mxGeometry x="-3750" y="420" width="40" height="60" as="geometry" />
        </mxCell>
        <mxCell id="fGDcRd_FfJGOgD1_VsJv-169" value="" style="rounded=0;whiteSpace=wrap;html=1;" parent="1" vertex="1">
          <mxGeometry x="-3360" y="420" width="40" height="60" as="geometry" />
        </mxCell>
        <mxCell id="fGDcRd_FfJGOgD1_VsJv-170" value="" style="rounded=0;whiteSpace=wrap;html=1;" parent="1" vertex="1">
          <mxGeometry x="-3170" y="420" width="40" height="60" as="geometry" />
        </mxCell>
        <mxCell id="fGDcRd_FfJGOgD1_VsJv-171" value="" style="rounded=0;whiteSpace=wrap;html=1;" parent="1" vertex="1">
          <mxGeometry x="313" y="460" width="40" height="60" as="geometry" />
        </mxCell>
        <mxCell id="fGDcRd_FfJGOgD1_VsJv-172" value="" style="rounded=0;whiteSpace=wrap;html=1;" parent="1" vertex="1">
          <mxGeometry x="490" y="460" width="40" height="60" as="geometry" />
        </mxCell>
        <mxCell id="fGDcRd_FfJGOgD1_VsJv-173" value="" style="rounded=0;whiteSpace=wrap;html=1;" parent="1" vertex="1">
          <mxGeometry x="670" y="460" width="40" height="60" as="geometry" />
        </mxCell>
        <mxCell id="fGDcRd_FfJGOgD1_VsJv-174" value="" style="endArrow=none;html=1;rounded=0;exitX=0.5;exitY=0;exitDx=0;exitDy=0;entryX=0.5;entryY=1;entryDx=0;entryDy=0;" parent="1" source="fGDcRd_FfJGOgD1_VsJv-144" target="fGDcRd_FfJGOgD1_VsJv-114" edge="1">
          <mxGeometry width="50" height="50" relative="1" as="geometry">
            <mxPoint x="-4900" y="560" as="sourcePoint" />
            <mxPoint x="-4850" y="510" as="targetPoint" />
          </mxGeometry>
        </mxCell>
        <mxCell id="fGDcRd_FfJGOgD1_VsJv-175" value="" style="endArrow=none;html=1;rounded=0;exitX=0.5;exitY=0;exitDx=0;exitDy=0;entryX=0.5;entryY=1;entryDx=0;entryDy=0;" parent="1" source="fGDcRd_FfJGOgD1_VsJv-145" target="fGDcRd_FfJGOgD1_VsJv-115" edge="1">
          <mxGeometry width="50" height="50" relative="1" as="geometry">
            <mxPoint x="-4900" y="560" as="sourcePoint" />
            <mxPoint x="-4850" y="510" as="targetPoint" />
          </mxGeometry>
        </mxCell>
        <mxCell id="fGDcRd_FfJGOgD1_VsJv-176" value="" style="endArrow=none;html=1;rounded=0;exitX=0.5;exitY=0;exitDx=0;exitDy=0;entryX=0.5;entryY=1;entryDx=0;entryDy=0;" parent="1" source="fGDcRd_FfJGOgD1_VsJv-146" target="fGDcRd_FfJGOgD1_VsJv-116" edge="1">
          <mxGeometry width="50" height="50" relative="1" as="geometry">
            <mxPoint x="-4960" y="350" as="sourcePoint" />
            <mxPoint x="-4960" y="303" as="targetPoint" />
          </mxGeometry>
        </mxCell>
        <mxCell id="fGDcRd_FfJGOgD1_VsJv-177" value="" style="endArrow=none;html=1;rounded=0;exitX=0.5;exitY=0;exitDx=0;exitDy=0;entryX=0.5;entryY=1;entryDx=0;entryDy=0;" parent="1" source="fGDcRd_FfJGOgD1_VsJv-147" target="fGDcRd_FfJGOgD1_VsJv-117" edge="1">
          <mxGeometry width="50" height="50" relative="1" as="geometry">
            <mxPoint x="-4950" y="360" as="sourcePoint" />
            <mxPoint x="-4950" y="313" as="targetPoint" />
          </mxGeometry>
        </mxCell>
        <mxCell id="fGDcRd_FfJGOgD1_VsJv-178" value="" style="endArrow=none;html=1;rounded=0;exitX=0.5;exitY=0;exitDx=0;exitDy=0;entryX=0.5;entryY=1;entryDx=0;entryDy=0;" parent="1" source="fGDcRd_FfJGOgD1_VsJv-148" target="fGDcRd_FfJGOgD1_VsJv-66" edge="1">
          <mxGeometry width="50" height="50" relative="1" as="geometry">
            <mxPoint x="-4600" y="350" as="sourcePoint" />
            <mxPoint x="-4600" y="303" as="targetPoint" />
          </mxGeometry>
        </mxCell>
        <mxCell id="fGDcRd_FfJGOgD1_VsJv-179" value="" style="endArrow=none;html=1;rounded=0;entryX=0.5;entryY=1;entryDx=0;entryDy=0;exitX=0.5;exitY=0;exitDx=0;exitDy=0;" parent="1" source="fGDcRd_FfJGOgD1_VsJv-149" target="fGDcRd_FfJGOgD1_VsJv-65" edge="1">
          <mxGeometry width="50" height="50" relative="1" as="geometry">
            <mxPoint x="-4170" y="350" as="sourcePoint" />
            <mxPoint x="-4170" y="308" as="targetPoint" />
          </mxGeometry>
        </mxCell>
        <mxCell id="fGDcRd_FfJGOgD1_VsJv-180" value="" style="endArrow=none;html=1;rounded=0;entryX=0.5;entryY=1;entryDx=0;entryDy=0;exitX=0.5;exitY=0;exitDx=0;exitDy=0;" parent="1" source="fGDcRd_FfJGOgD1_VsJv-167" target="fGDcRd_FfJGOgD1_VsJv-71" edge="1">
          <mxGeometry width="50" height="50" relative="1" as="geometry">
            <mxPoint x="-4000" y="350" as="sourcePoint" />
            <mxPoint x="-4000" y="308" as="targetPoint" />
          </mxGeometry>
        </mxCell>
        <mxCell id="fGDcRd_FfJGOgD1_VsJv-181" value="" style="endArrow=none;html=1;rounded=0;entryX=0.5;entryY=1;entryDx=0;entryDy=0;exitX=0.5;exitY=0;exitDx=0;exitDy=0;" parent="1" source="fGDcRd_FfJGOgD1_VsJv-168" target="fGDcRd_FfJGOgD1_VsJv-70" edge="1">
          <mxGeometry width="50" height="50" relative="1" as="geometry">
            <mxPoint x="-3890" y="430" as="sourcePoint" />
            <mxPoint x="-3890" y="400" as="targetPoint" />
          </mxGeometry>
        </mxCell>
        <mxCell id="fGDcRd_FfJGOgD1_VsJv-182" value="" style="endArrow=none;html=1;rounded=0;entryX=0.5;entryY=1;entryDx=0;entryDy=0;exitX=0.5;exitY=0;exitDx=0;exitDy=0;" parent="1" source="fGDcRd_FfJGOgD1_VsJv-151" target="fGDcRd_FfJGOgD1_VsJv-69" edge="1">
          <mxGeometry width="50" height="50" relative="1" as="geometry">
            <mxPoint x="-3720" y="430" as="sourcePoint" />
            <mxPoint x="-3720" y="400" as="targetPoint" />
          </mxGeometry>
        </mxCell>
        <mxCell id="fGDcRd_FfJGOgD1_VsJv-183" value="" style="endArrow=none;html=1;rounded=0;exitX=0.5;exitY=0;exitDx=0;exitDy=0;entryX=0.5;entryY=1;entryDx=0;entryDy=0;" parent="1" source="fGDcRd_FfJGOgD1_VsJv-152" target="fGDcRd_FfJGOgD1_VsJv-68" edge="1">
          <mxGeometry width="50" height="50" relative="1" as="geometry">
            <mxPoint x="-3870" y="560" as="sourcePoint" />
            <mxPoint x="-3820" y="510" as="targetPoint" />
          </mxGeometry>
        </mxCell>
        <mxCell id="fGDcRd_FfJGOgD1_VsJv-184" value="" style="endArrow=none;html=1;rounded=0;exitX=0.5;exitY=1;exitDx=0;exitDy=0;entryX=0.5;entryY=0;entryDx=0;entryDy=0;" parent="1" source="fGDcRd_FfJGOgD1_VsJv-72" target="fGDcRd_FfJGOgD1_VsJv-169" edge="1">
          <mxGeometry width="50" height="50" relative="1" as="geometry">
            <mxPoint x="-3510" y="560" as="sourcePoint" />
            <mxPoint x="-3460" y="510" as="targetPoint" />
          </mxGeometry>
        </mxCell>
        <mxCell id="fGDcRd_FfJGOgD1_VsJv-185" value="" style="endArrow=none;html=1;rounded=0;exitX=0.5;exitY=1;exitDx=0;exitDy=0;entryX=0.5;entryY=0;entryDx=0;entryDy=0;" parent="1" source="fGDcRd_FfJGOgD1_VsJv-73" target="fGDcRd_FfJGOgD1_VsJv-170" edge="1">
          <mxGeometry width="50" height="50" relative="1" as="geometry">
            <mxPoint x="-3330" y="400" as="sourcePoint" />
            <mxPoint x="-3330" y="430" as="targetPoint" />
          </mxGeometry>
        </mxCell>
        <mxCell id="fGDcRd_FfJGOgD1_VsJv-186" value="" style="endArrow=none;html=1;rounded=0;exitX=0.5;exitY=0;exitDx=0;exitDy=0;entryX=0.5;entryY=1;entryDx=0;entryDy=0;" parent="1" source="fGDcRd_FfJGOgD1_VsJv-153" target="fGDcRd_FfJGOgD1_VsJv-38" edge="1">
          <mxGeometry width="50" height="50" relative="1" as="geometry">
            <mxPoint x="-3040" y="560" as="sourcePoint" />
            <mxPoint x="-2990" y="510" as="targetPoint" />
          </mxGeometry>
        </mxCell>
        <mxCell id="fGDcRd_FfJGOgD1_VsJv-187" value="" style="endArrow=none;html=1;rounded=0;exitX=0.5;exitY=0;exitDx=0;exitDy=0;entryX=0.5;entryY=1;entryDx=0;entryDy=0;" parent="1" source="fGDcRd_FfJGOgD1_VsJv-154" target="fGDcRd_FfJGOgD1_VsJv-37" edge="1">
          <mxGeometry width="50" height="50" relative="1" as="geometry">
            <mxPoint x="-3040" y="560" as="sourcePoint" />
            <mxPoint x="-2990" y="510" as="targetPoint" />
          </mxGeometry>
        </mxCell>
        <mxCell id="fGDcRd_FfJGOgD1_VsJv-188" value="" style="endArrow=none;html=1;rounded=0;exitX=0.5;exitY=0;exitDx=0;exitDy=0;entryX=0.5;entryY=1;entryDx=0;entryDy=0;" parent="1" source="fGDcRd_FfJGOgD1_VsJv-155" target="fGDcRd_FfJGOgD1_VsJv-36" edge="1">
          <mxGeometry width="50" height="50" relative="1" as="geometry">
            <mxPoint x="-3040" y="560" as="sourcePoint" />
            <mxPoint x="-2990" y="510" as="targetPoint" />
          </mxGeometry>
        </mxCell>
        <mxCell id="fGDcRd_FfJGOgD1_VsJv-189" value="" style="endArrow=none;html=1;rounded=0;exitX=0.5;exitY=0;exitDx=0;exitDy=0;entryX=0.5;entryY=1;entryDx=0;entryDy=0;" parent="1" source="fGDcRd_FfJGOgD1_VsJv-156" target="fGDcRd_FfJGOgD1_VsJv-35" edge="1">
          <mxGeometry width="50" height="50" relative="1" as="geometry">
            <mxPoint x="-2580" y="560" as="sourcePoint" />
            <mxPoint x="-2530" y="510" as="targetPoint" />
          </mxGeometry>
        </mxCell>
        <mxCell id="fGDcRd_FfJGOgD1_VsJv-190" value="" style="endArrow=none;html=1;rounded=0;exitX=0.5;exitY=0;exitDx=0;exitDy=0;entryX=0.5;entryY=1;entryDx=0;entryDy=0;" parent="1" source="fGDcRd_FfJGOgD1_VsJv-157" target="fGDcRd_FfJGOgD1_VsJv-41" edge="1">
          <mxGeometry width="50" height="50" relative="1" as="geometry">
            <mxPoint x="-2580" y="560" as="sourcePoint" />
            <mxPoint x="-2530" y="510" as="targetPoint" />
          </mxGeometry>
        </mxCell>
        <mxCell id="fGDcRd_FfJGOgD1_VsJv-191" value="" style="endArrow=none;html=1;rounded=0;exitX=0.5;exitY=0;exitDx=0;exitDy=0;entryX=0.5;entryY=1;entryDx=0;entryDy=0;" parent="1" source="fGDcRd_FfJGOgD1_VsJv-158" target="fGDcRd_FfJGOgD1_VsJv-59" edge="1">
          <mxGeometry width="50" height="50" relative="1" as="geometry">
            <mxPoint x="-1730" y="560" as="sourcePoint" />
            <mxPoint x="-1680" y="510" as="targetPoint" />
          </mxGeometry>
        </mxCell>
        <mxCell id="fGDcRd_FfJGOgD1_VsJv-192" value="" style="endArrow=none;html=1;rounded=0;exitX=0.5;exitY=0;exitDx=0;exitDy=0;entryX=0.5;entryY=1;entryDx=0;entryDy=0;" parent="1" source="fGDcRd_FfJGOgD1_VsJv-159" target="fGDcRd_FfJGOgD1_VsJv-15" edge="1">
          <mxGeometry width="50" height="50" relative="1" as="geometry">
            <mxPoint x="-1500" y="350" as="sourcePoint" />
            <mxPoint x="-1500" y="303" as="targetPoint" />
          </mxGeometry>
        </mxCell>
        <mxCell id="fGDcRd_FfJGOgD1_VsJv-193" value="" style="endArrow=none;html=1;rounded=0;exitX=0.5;exitY=0;exitDx=0;exitDy=0;entryX=0.5;entryY=1;entryDx=0;entryDy=0;" parent="1" source="fGDcRd_FfJGOgD1_VsJv-160" target="fGDcRd_FfJGOgD1_VsJv-17" edge="1">
          <mxGeometry width="50" height="50" relative="1" as="geometry">
            <mxPoint x="-960" y="350" as="sourcePoint" />
            <mxPoint x="-960" y="300" as="targetPoint" />
          </mxGeometry>
        </mxCell>
        <mxCell id="fGDcRd_FfJGOgD1_VsJv-194" value="" style="endArrow=none;html=1;rounded=0;exitX=0.5;exitY=0;exitDx=0;exitDy=0;entryX=0.5;entryY=1;entryDx=0;entryDy=0;" parent="1" source="fGDcRd_FfJGOgD1_VsJv-161" target="fGDcRd_FfJGOgD1_VsJv-16" edge="1">
          <mxGeometry width="50" height="50" relative="1" as="geometry">
            <mxPoint x="-790" y="350" as="sourcePoint" />
            <mxPoint x="-790" y="300" as="targetPoint" />
          </mxGeometry>
        </mxCell>
        <mxCell id="fGDcRd_FfJGOgD1_VsJv-195" value="" style="endArrow=none;html=1;rounded=0;exitX=0.5;exitY=0;exitDx=0;exitDy=0;entryX=0.5;entryY=1;entryDx=0;entryDy=0;" parent="1" source="fGDcRd_FfJGOgD1_VsJv-162" target="fGDcRd_FfJGOgD1_VsJv-31" edge="1">
          <mxGeometry width="50" height="50" relative="1" as="geometry">
            <mxPoint x="-780" y="360" as="sourcePoint" />
            <mxPoint x="-780" y="310" as="targetPoint" />
          </mxGeometry>
        </mxCell>
        <mxCell id="fGDcRd_FfJGOgD1_VsJv-196" value="" style="endArrow=none;html=1;rounded=0;exitX=0.5;exitY=0;exitDx=0;exitDy=0;entryX=0.5;entryY=1;entryDx=0;entryDy=0;" parent="1" source="fGDcRd_FfJGOgD1_VsJv-163" target="fGDcRd_FfJGOgD1_VsJv-19" edge="1">
          <mxGeometry width="50" height="50" relative="1" as="geometry">
            <mxPoint x="-450" y="350" as="sourcePoint" />
            <mxPoint x="-450" y="300" as="targetPoint" />
          </mxGeometry>
        </mxCell>
        <mxCell id="fGDcRd_FfJGOgD1_VsJv-197" value="" style="endArrow=none;html=1;rounded=0;exitX=0.5;exitY=0;exitDx=0;exitDy=0;entryX=0.5;entryY=1;entryDx=0;entryDy=0;" parent="1" source="fGDcRd_FfJGOgD1_VsJv-164" target="fGDcRd_FfJGOgD1_VsJv-18" edge="1">
          <mxGeometry width="50" height="50" relative="1" as="geometry">
            <mxPoint x="-280" y="350" as="sourcePoint" />
            <mxPoint x="-280" y="295" as="targetPoint" />
          </mxGeometry>
        </mxCell>
        <mxCell id="fGDcRd_FfJGOgD1_VsJv-198" value="" style="endArrow=none;html=1;rounded=0;exitX=0.5;exitY=0;exitDx=0;exitDy=0;entryX=0.5;entryY=1;entryDx=0;entryDy=0;" parent="1" source="fGDcRd_FfJGOgD1_VsJv-171" target="fGDcRd_FfJGOgD1_VsJv-5" edge="1">
          <mxGeometry width="50" height="50" relative="1" as="geometry">
            <mxPoint x="140" y="560" as="sourcePoint" />
            <mxPoint x="190" y="510" as="targetPoint" />
          </mxGeometry>
        </mxCell>
        <mxCell id="fGDcRd_FfJGOgD1_VsJv-199" value="" style="endArrow=none;html=1;rounded=0;exitX=0.5;exitY=0;exitDx=0;exitDy=0;entryX=0.5;entryY=1;entryDx=0;entryDy=0;" parent="1" source="fGDcRd_FfJGOgD1_VsJv-172" target="fGDcRd_FfJGOgD1_VsJv-7" edge="1">
          <mxGeometry width="50" height="50" relative="1" as="geometry">
            <mxPoint x="343" y="470" as="sourcePoint" />
            <mxPoint x="343" y="430" as="targetPoint" />
          </mxGeometry>
        </mxCell>
        <mxCell id="fGDcRd_FfJGOgD1_VsJv-200" value="" style="endArrow=none;html=1;rounded=0;exitX=0.5;exitY=0;exitDx=0;exitDy=0;entryX=0.5;entryY=1;entryDx=0;entryDy=0;" parent="1" source="fGDcRd_FfJGOgD1_VsJv-173" target="fGDcRd_FfJGOgD1_VsJv-6" edge="1">
          <mxGeometry width="50" height="50" relative="1" as="geometry">
            <mxPoint x="520" y="470" as="sourcePoint" />
            <mxPoint x="520" y="430" as="targetPoint" />
          </mxGeometry>
        </mxCell>
        <mxCell id="fGDcRd_FfJGOgD1_VsJv-201" value="" style="endArrow=none;html=1;rounded=0;exitX=0.5;exitY=0;exitDx=0;exitDy=0;entryX=0.5;entryY=1;entryDx=0;entryDy=0;" parent="1" source="fGDcRd_FfJGOgD1_VsJv-165" target="fGDcRd_FfJGOgD1_VsJv-106" edge="1">
          <mxGeometry width="50" height="50" relative="1" as="geometry">
            <mxPoint x="530" y="480" as="sourcePoint" />
            <mxPoint x="530" y="440" as="targetPoint" />
          </mxGeometry>
        </mxCell>
        <mxCell id="fGDcRd_FfJGOgD1_VsJv-203" value="Reptér_JJL4WE" style="ellipse;shape=doubleEllipse;margin=3;whiteSpace=wrap;html=1;" parent="1" vertex="1">
          <mxGeometry x="-1980" y="-560" width="160" height="60" as="geometry" />
        </mxCell>
        <mxCell id="fGDcRd_FfJGOgD1_VsJv-204" value="" style="endArrow=none;html=1;rounded=0;exitX=0.5;exitY=1;exitDx=0;exitDy=0;entryX=0.5;entryY=0;entryDx=0;entryDy=0;" parent="1" source="fGDcRd_FfJGOgD1_VsJv-203" target="fGDcRd_FfJGOgD1_VsJv-42" edge="1">
          <mxGeometry width="50" height="50" relative="1" as="geometry">
            <mxPoint x="-1290" y="40" as="sourcePoint" />
            <mxPoint x="-1240" y="-10" as="targetPoint" />
          </mxGeometry>
        </mxCell>
        <mxCell id="fGDcRd_FfJGOgD1_VsJv-205" value="" style="endArrow=none;html=1;rounded=0;exitX=0.5;exitY=1;exitDx=0;exitDy=0;entryX=0.5;entryY=0;entryDx=0;entryDy=0;" parent="1" source="fGDcRd_FfJGOgD1_VsJv-203" target="fGDcRd_FfJGOgD1_VsJv-13" edge="1">
          <mxGeometry width="50" height="50" relative="1" as="geometry">
            <mxPoint x="-830" y="-330" as="sourcePoint" />
            <mxPoint x="-1440" y="103" as="targetPoint" />
          </mxGeometry>
        </mxCell>
        <mxCell id="fGDcRd_FfJGOgD1_VsJv-206" value="" style="endArrow=none;html=1;rounded=0;exitX=0.5;exitY=1;exitDx=0;exitDy=0;entryX=0.5;entryY=0;entryDx=0;entryDy=0;" parent="1" source="fGDcRd_FfJGOgD1_VsJv-203" target="fGDcRd_FfJGOgD1_VsJv-32" edge="1">
          <mxGeometry width="50" height="50" relative="1" as="geometry">
            <mxPoint x="-820" y="-320" as="sourcePoint" />
            <mxPoint x="-1430" y="113" as="targetPoint" />
          </mxGeometry>
        </mxCell>
        <mxCell id="fGDcRd_FfJGOgD1_VsJv-207" value="" style="endArrow=none;html=1;rounded=0;exitX=0.5;exitY=1;exitDx=0;exitDy=0;entryX=0.5;entryY=0;entryDx=0;entryDy=0;" parent="1" source="fGDcRd_FfJGOgD1_VsJv-203" target="fGDcRd_FfJGOgD1_VsJv-61" edge="1">
          <mxGeometry width="50" height="50" relative="1" as="geometry">
            <mxPoint x="-830" y="-330" as="sourcePoint" />
            <mxPoint x="-2440" y="110" as="targetPoint" />
          </mxGeometry>
        </mxCell>
        <mxCell id="fGDcRd_FfJGOgD1_VsJv-208" value="" style="endArrow=none;html=1;rounded=0;exitX=0.5;exitY=1;exitDx=0;exitDy=0;entryX=0.5;entryY=0;entryDx=0;entryDy=0;" parent="1" source="fGDcRd_FfJGOgD1_VsJv-203" target="fGDcRd_FfJGOgD1_VsJv-113" edge="1">
          <mxGeometry width="50" height="50" relative="1" as="geometry">
            <mxPoint x="-830" y="-330" as="sourcePoint" />
            <mxPoint x="-3810" y="110" as="targetPoint" />
          </mxGeometry>
        </mxCell>
        <mxCell id="fGDcRd_FfJGOgD1_VsJv-209" value="" style="endArrow=none;html=1;rounded=0;exitX=0.5;exitY=1;exitDx=0;exitDy=0;entryX=0.5;entryY=0;entryDx=0;entryDy=0;" parent="1" source="fGDcRd_FfJGOgD1_VsJv-203" target="fGDcRd_FfJGOgD1_VsJv-1" edge="1">
          <mxGeometry width="50" height="50" relative="1" as="geometry">
            <mxPoint x="-830" y="-330" as="sourcePoint" />
            <mxPoint x="-540" y="110" as="targetPoint" />
          </mxGeometry>
        </mxCell>
        <mxCell id="fGDcRd_FfJGOgD1_VsJv-210" value="" style="endArrow=none;html=1;rounded=0;exitX=0.5;exitY=1;exitDx=0;exitDy=0;entryX=0.5;entryY=0;entryDx=0;entryDy=0;" parent="1" source="fGDcRd_FfJGOgD1_VsJv-203" target="fGDcRd_FfJGOgD1_VsJv-105" edge="1">
          <mxGeometry width="50" height="50" relative="1" as="geometry">
            <mxPoint x="-830" y="-330" as="sourcePoint" />
            <mxPoint x="520" y="110" as="targetPoint" />
          </mxGeometry>
        </mxCell>
      </root>
    </mxGraphModel>
  </diagram>
</mxfile>
